<svg xmlns="http://www.w3.org/2000/svg" viewBox="0 0 1024 1024">
  <defs>
    <linearGradient id="bg" x1="116" y1="88" x2="908" y2="936" gradientUnits="userSpaceOnUse">
      <stop offset="0" stop-color="#242832"/>
      <stop offset="0.48" stop-color="#0c0f17"/>
      <stop offset="1" stop-color="#05060a"/>
    </linearGradient>
    <radialGradient id="halo" cx="50%" cy="42%" r="58%">
      <stop offset="0" stop-color="#8e8cff" stop-opacity="0.72"/>
      <stop offset="0.38" stop-color="#3dd7ff" stop-opacity="0.18"/>
      <stop offset="1" stop-color="#000000" stop-opacity="0"/>
    </radialGradient>
    <linearGradient id="core" x1="296" y1="270" x2="740" y2="756" gradientUnits="userSpaceOnUse">
      <stop offset="0" stop-color="#f7fbff"/>
      <stop offset="0.18" stop-color="#92d8ff"/>
      <stop offset="0.52" stop-color="#7367ff"/>
      <stop offset="1" stop-color="#2a1e7a"/>
    </linearGradient>
    <linearGradient id="green" x1="0" y1="0" x2="1" y2="1">
      <stop offset="0" stop-color="#86ffd5"/>
      <stop offset="1" stop-color="#1fd477"/>
    </linearGradient>
    <linearGradient id="violet" x1="0" y1="0" x2="1" y2="1">
      <stop offset="0" stop-color="#e6dbff"/>
      <stop offset="1" stop-color="#8c6cff"/>
    </linearGradient>
    <filter id="shadow" x="-30%" y="-30%" width="160%" height="160%">
      <feDropShadow dx="0" dy="34" stdDeviation="42" flood-color="#000000" flood-opacity="0.48"/>
    </filter>
    <filter id="glow" x="-80%" y="-80%" width="260%" height="260%">
      <feGaussianBlur stdDeviation="18" result="blur"/>
      <feColorMatrix in="blur" type="matrix" values="0 0 0 0 0.39 0 0 0 0 0.49 0 0 0 0 1 0 0 0 0.9 0"/>
      <feMerge>
        <feMergeNode/>
        <feMergeNode in="SourceGraphic"/>
      </feMerge>
    </filter>
  </defs>

  <rect width="1024" height="1024" rx="228" fill="url(#bg)"/>
  <rect x="28" y="28" width="968" height="968" rx="202" fill="none" stroke="rgba(255,255,255,0.16)" stroke-width="6"/>
  <rect x="80" y="72" width="864" height="864" rx="172" fill="url(#halo)" opacity="0.92"/>

  <g filter="url(#shadow)">
    <circle cx="512" cy="512" r="294" fill="rgba(255,255,255,0.055)" stroke="rgba(255,255,255,0.16)" stroke-width="7"/>
    <circle cx="512" cy="512" r="220" fill="rgba(8,10,18,0.72)" stroke="rgba(255,255,255,0.2)" stroke-width="5"/>
    <path d="M512 224 C650 304 720 374 800 512 C720 650 650 720 512 800 C374 720 304 650 224 512 C304 374 374 304 512 224Z" fill="url(#core)" filter="url(#glow)"/>
    <path d="M512 314 L590 488 L778 512 L590 536 L512 710 L434 536 L246 512 L434 488Z" fill="#f8fbff"/>
    <circle cx="512" cy="512" r="58" fill="#0e1220" opacity="0.92"/>
    <path d="M482 514 L508 540 L552 480" fill="none" stroke="url(#green)" stroke-width="28" stroke-linecap="round" stroke-linejoin="round"/>
  </g>

  <g fill="none" stroke-linecap="round">
    <path d="M220 404 C326 240 696 240 804 404" stroke="rgba(114,167,255,0.6)" stroke-width="14"/>
    <path d="M216 622 C332 792 692 792 808 622" stroke="rgba(118,255,211,0.48)" stroke-width="14"/>
    <path d="M398 216 C244 326 244 698 398 808" stroke="rgba(150,121,255,0.46)" stroke-width="12"/>
    <path d="M626 216 C780 326 780 698 626 808" stroke="rgba(255,255,255,0.2)" stroke-width="12"/>
  </g>

  <g>
    <circle cx="254" cy="398" r="34" fill="url(#green)"/>
    <circle cx="770" cy="398" r="34" fill="#6ea2ff"/>
    <circle cx="254" cy="626" r="34" fill="#ffb75e"/>
    <circle cx="770" cy="626" r="34" fill="#ff5f78"/>
    <circle cx="512" cy="188" r="30" fill="url(#violet)"/>
    <circle cx="512" cy="836" r="30" fill="#62f4ff"/>
  </g>

  <g opacity="0.94">
    <rect x="308" y="760" width="408" height="88" rx="44" fill="rgba(255,255,255,0.1)" stroke="rgba(255,255,255,0.22)" stroke-width="4"/>
    <circle cx="366" cy="804" r="20" fill="#d7e5ff"/>
    <path d="M438 804 H650" stroke="rgba(255,255,255,0.76)" stroke-width="18" stroke-linecap="round"/>
  </g>
</svg>
