<svg xmlns="http://www.w3.org/2000/svg" viewBox="0 0 1024 1024">
  <defs>
    <linearGradient id="core" x1="296" y1="270" x2="740" y2="756" gradientUnits="userSpaceOnUse">
      <stop offset="0" stop-color="#f7fbff"/>
      <stop offset="0.18" stop-color="#92d8ff"/>
      <stop offset="0.52" stop-color="#7367ff"/>
      <stop offset="1" stop-color="#2a1e7a"/>
    </linearGradient>
    <linearGradient id="green" x1="0" y1="0" x2="1" y2="1">
      <stop offset="0" stop-color="#86ffd5"/>
      <stop offset="1" stop-color="#1fd477"/>
    </linearGradient>
    <filter id="shadow" x="-35%" y="-35%" width="170%" height="170%">
      <feDropShadow dx="0" dy="28" stdDeviation="34" flood-color="#000000" flood-opacity="0.42"/>
    </filter>
    <filter id="glow" x="-80%" y="-80%" width="260%" height="260%">
      <feGaussianBlur stdDeviation="18" result="blur"/>
      <feColorMatrix in="blur" type="matrix" values="0 0 0 0 0.39 0 0 0 0 0.49 0 0 0 0 1 0 0 0 0.9 0"/>
      <feMerge>
        <feMergeNode/>
        <feMergeNode in="SourceGraphic"/>
      </feMerge>
    </filter>
  </defs>
  <g filter="url(#shadow)">
    <circle cx="512" cy="512" r="294" fill="rgba(255,255,255,0.055)" stroke="rgba(255,255,255,0.2)" stroke-width="7"/>
    <circle cx="512" cy="512" r="220" fill="rgba(8,10,18,0.7)" stroke="rgba(255,255,255,0.22)" stroke-width="5"/>
    <path d="M512 224 C650 304 720 374 800 512 C720 650 650 720 512 800 C374 720 304 650 224 512 C304 374 374 304 512 224Z" fill="url(#core)" filter="url(#glow)"/>
    <path d="M512 314 L590 488 L778 512 L590 536 L512 710 L434 536 L246 512 L434 488Z" fill="#f8fbff"/>
    <circle cx="512" cy="512" r="58" fill="#0e1220" opacity="0.92"/>
    <path d="M482 514 L508 540 L552 480" fill="none" stroke="url(#green)" stroke-width="28" stroke-linecap="round" stroke-linejoin="round"/>
  </g>
  <g fill="none" stroke-linecap="round">
    <path d="M220 404 C326 240 696 240 804 404" stroke="rgba(114,167,255,0.64)" stroke-width="14"/>
    <path d="M216 622 C332 792 692 792 808 622" stroke="rgba(118,255,211,0.52)" stroke-width="14"/>
    <path d="M398 216 C244 326 244 698 398 808" stroke="rgba(150,121,255,0.5)" stroke-width="12"/>
    <path d="M626 216 C780 326 780 698 626 808" stroke="rgba(255,255,255,0.24)" stroke-width="12"/>
  </g>
</svg>
